<?xml version="1.0" encoding="utf-8"?>
<!-- Generator: Adobe Illustrator 21.0.2, SVG Export Plug-In . SVG Version: 6.00 Build 0)  -->
<!DOCTYPE svg PUBLIC "-//W3C//DTD SVG 1.1//EN" "http://www.w3.org/Graphics/SVG/1.1/DTD/svg11.dtd">
<svg version="1.1" id="Ebene_1" xmlns="http://www.w3.org/2000/svg" xmlns:xlink="http://www.w3.org/1999/xlink" x="0px" y="0px"
	 viewBox="0 0 128 40" style="enable-background:new 0 0 128 40;" xml:space="preserve">
<style type="text/css">
	.st0{fill:#FFFFFF;}
	.st1{filter:url(#Adobe_OpacityMaskFilter);}
	.st2{mask:url(#mask-2);fill:#FFFFFF;}
</style>
<title>Logo</title>
<desc>Created with Sketch.</desc>
<g id="header">
	<g id="Header-3" transform="translate(-40.000000, -30.000000)">
		<g id="Logo" transform="translate(40.000000, 30.000000)">
			<g>
				<g>
					<g id="Group-14" transform="translate(49.577465, 0.032552)">
						<path id="Fill-1" class="st0" d="M22.9,13.5c-0.4-0.5-0.8-1-1.2-1.4c-0.5-0.4-1-0.7-1.5-0.9c-0.5-0.2-1-0.4-1.6-0.6
							c-0.5-0.1-1-0.2-1.5-0.2l0,0l-10,0c-0.8,0-1.5-0.2-1.9-0.7c-0.5-0.5-0.7-1.2-0.7-2c0-0.8,0.2-1.5,0.7-2
							c0.5-0.5,1.1-0.8,1.9-0.8l14.7,0l0-4.4l-14.7,0c-0.7,0-1.5,0.1-2.3,0.4C4.1,1.1,3.3,1.5,2.6,2.1C1.9,2.6,1.3,3.4,0.9,4.3
							c-0.5,0.9-0.7,2-0.7,3.4c0,1.3,0.2,2.4,0.7,3.4c0.5,0.9,1,1.7,1.7,2.2c0.7,0.6,1.4,1,2.3,1.2c0.8,0.3,1.6,0.4,2.3,0.4l10,0
							c0.4,0,0.8,0.1,1.1,0.2c0.3,0.1,0.6,0.3,0.8,0.6c0.2,0.3,0.4,0.5,0.5,0.9c0.1,0.3,0.2,0.7,0.2,1.1c0,0.8-0.2,1.5-0.7,2
							c-0.5,0.5-1.1,0.7-1.9,0.7l-16.6,0l0,4.4l16.6,0c0.5,0,1-0.1,1.5-0.2c0.5-0.1,1-0.3,1.6-0.5c0.5-0.2,1-0.5,1.5-0.9
							c0.5-0.4,0.9-0.8,1.3-1.4c0.4-0.5,0.6-1.1,0.9-1.8c0.2-0.7,0.3-1.5,0.3-2.4c0-0.9-0.1-1.7-0.3-2.3
							C23.5,14.6,23.2,14,22.9,13.5"/>
						<path id="Fill-3" class="st0" d="M29.6,0.6c-0.3,0.1-0.5,0.3-0.7,0.5c-0.2,0.2-0.3,0.4-0.5,0.7c-0.1,0.3-0.2,0.6-0.2,0.9
							l0,15.9c0,1.1,0.2,2.1,0.6,2.9c0.4,0.8,0.9,1.4,1.5,1.9c0.6,0.5,1.3,0.8,2,1.1c0.7,0.2,1.4,0.3,2,0.3l15.6,0l0-4.4l-15.6,0
							c-0.6,0-1-0.2-1.3-0.5c-0.3-0.3-0.4-0.7-0.4-1.3l0-3.7l15.4,0l0-4.5l-15.4,0l0-5.6l17.4,0l0-4.4l-19.5,0
							C30.1,0.5,29.8,0.5,29.6,0.6"/>
						<path id="Fill-5" class="st0" d="M77.9,11.8c-0.1-0.3-0.3-0.5-0.5-0.7c-0.2-0.2-0.4-0.4-0.7-0.5c-0.3-0.1-0.6-0.2-0.9-0.2
							l-13.7,0l0,4.5l11.5,0l0,5.5l-13.5,0c-0.6,0-1-0.2-1.3-0.5c-0.3-0.3-0.5-0.8-0.5-1.3l0-11.9c0-0.6,0.2-1.1,0.5-1.4
							c0.3-0.3,0.7-0.5,1.3-0.5l17.4,0l0-4.4l-17.4,0c-0.7,0-1.4,0.1-2,0.3c-0.6,0.2-1.1,0.4-1.6,0.8c-0.5,0.3-0.8,0.7-1.2,1.1
							C55.3,3.1,55,3.5,54.8,4c-0.2,0.5-0.3,0.9-0.4,1.4c-0.1,0.5-0.1,0.9-0.1,1.3l0,12c0,0.8,0.1,1.4,0.3,2
							c0.2,0.6,0.4,1.1,0.8,1.6c0.3,0.5,0.7,0.9,1.1,1.2c0.4,0.3,0.8,0.6,1.3,0.8c0.5,0.2,0.9,0.4,1.4,0.5c0.5,0.1,0.9,0.1,1.3,0.1
							l15.6,0c0.3,0,0.6-0.1,0.9-0.2c0.3-0.1,0.5-0.3,0.7-0.5c0.2-0.2,0.3-0.4,0.5-0.7c0.1-0.3,0.2-0.6,0.2-0.9l0-10
							C78.1,12.4,78,12.1,77.9,11.8"/>
						<path id="Fill-7" class="st0" d="M13.9,38.3l-2,0c0,0-0.1,0-0.2,0c-0.1,0-0.2,0-0.4-0.1c-0.1,0-0.3-0.1-0.5-0.2
							c-0.2-0.1-0.3-0.2-0.5-0.4c-0.1-0.2-0.3-0.3-0.3-0.6c-0.1-0.2-0.1-0.5-0.1-0.8l0-3.2l-1.1,0l0,3.2c0,0.4,0,0.7,0.1,1
							c0.1,0.3,0.2,0.6,0.4,0.8c0.2,0.2,0.3,0.4,0.5,0.6c0.2,0.2,0.4,0.3,0.7,0.4c0.2,0.1,0.5,0.2,0.7,0.3c0.3,0.1,0.5,0.1,0.7,0.1
							l2.6,0c0.1,0,0.2,0,0.2,0c0.1,0,0.1-0.1,0.2-0.1c0.1-0.1,0.1-0.1,0.1-0.2c0-0.1,0-0.1,0-0.2l0-5.9l-1.1,0L13.9,38.3z"/>
						<g id="Group-11" transform="translate(24.788732, 32.643678)">
							<path id="Fill-9" class="st0" d="M6.3,1C6.1,0.8,5.8,0.6,5.5,0.5C5.1,0.3,4.8,0.3,4.4,0.3l-1.6,0c-0.4,0-0.7,0.1-1.1,0.2
								C1.5,0.6,1.2,0.8,1,1C0.7,1.3,0.5,1.6,0.4,1.9C0.3,2.2,0.2,2.6,0.2,3l0,1.2c0,0.4,0.1,0.8,0.2,1.1C0.5,5.6,0.7,5.9,1,6.1
								c0.2,0.2,0.5,0.4,0.8,0.6c0.3,0.1,0.7,0.2,1.1,0.2l1.6,0c0.4,0,0.7-0.1,1.1-0.2c0.3-0.1,0.6-0.3,0.8-0.6
								c0.2-0.2,0.4-0.5,0.6-0.9C7,5,7,4.6,7,4.2L7,3C7,2.6,7,2.2,6.8,1.9C6.7,1.6,6.5,1.3,6.3,1L6.3,1z M5.9,4.2
								c0,0.2,0,0.4-0.1,0.6C5.7,5,5.6,5.2,5.5,5.3C5.3,5.5,5.2,5.6,5,5.6C4.8,5.7,4.6,5.7,4.4,5.7l-1.5,0c-0.2,0-0.4,0-0.6-0.1
								C2.1,5.6,1.9,5.4,1.8,5.3C1.6,5.2,1.5,5,1.5,4.8C1.4,4.6,1.3,4.4,1.3,4.2l0-1.2c0-0.2,0-0.4,0.1-0.6C1.5,2.2,1.6,2,1.8,1.9
								c0.1-0.1,0.3-0.2,0.5-0.3c0.2-0.1,0.4-0.1,0.6-0.1l1.6,0c0.2,0,0.4,0,0.6,0.1c0.2,0.1,0.3,0.2,0.5,0.3C5.6,2,5.7,2.2,5.8,2.3
								C5.9,2.5,5.9,2.7,5.9,3L5.9,4.2z"/>
						</g>
						<path id="Fill-12" class="st0" d="M6.3,33.2c-0.1-0.1-0.1-0.1-0.2-0.1c-0.1,0-0.1,0-0.2,0l-2.6,0c-0.5,0-0.9,0.1-1.3,0.2
							c-0.4,0.2-0.7,0.4-1,0.7c-0.3,0.3-0.5,0.6-0.7,1c-0.2,0.4-0.2,0.8-0.2,1.3l0,3.2l1.1,0l0-1.6l4,0l0,1.6l1.1,0l0-5.9
							c0-0.1,0-0.2,0-0.2C6.4,33.3,6.3,33.2,6.3,33.2L6.3,33.2z M5.3,36.7l-4,0l0-0.5c0-0.3,0-0.6,0.1-0.8c0.1-0.2,0.2-0.4,0.3-0.6
							c0.1-0.2,0.3-0.3,0.5-0.4c0.2-0.1,0.3-0.2,0.5-0.2c0.1,0,0.3-0.1,0.4-0.1c0.1,0,0.2,0,0.2,0l2,0L5.3,36.7z"/>
					</g>
					<polygon id="Fill-15" class="st0" points="66.6,33 66.6,34.2 69.2,34.2 69.2,39.5 70.3,39.5 70.3,34.2 72.8,34.2 72.8,33 					
						"/>
					<polygon id="Fill-16" class="st0" points="101.8,33.1 101.8,34.2 104.3,34.2 104.3,39.5 105.5,39.5 105.5,34.2 108,34.2 
						108,33.1 					"/>
					<g id="Group-24" transform="translate(83.380282, 32.676230)">
						<g id="Group-19">
							<g id="Clip-18">
							</g>
							<defs>
								<filter id="Adobe_OpacityMaskFilter" filterUnits="userSpaceOnUse" x="0.3" y="0.3" width="7.4" height="6.6">
									<feColorMatrix  type="matrix" values="1 0 0 0 0  0 1 0 0 0  0 0 1 0 0  0 0 0 1 0"/>
								</filter>
							</defs>
							<mask maskUnits="userSpaceOnUse" x="0.3" y="0.3" width="7.4" height="6.6" id="mask-2">
								<g class="st1">
									<polygon id="path-1" class="st0" points="7.6,6.9 0.3,6.9 0.3,0.3 7.6,0.3 									"/>
								</g>
							</mask>
							<path id="Fill-17" class="st2" d="M7.2,0.3c-0.1,0-0.3,0-0.4,0c-0.1,0-0.2,0.1-0.3,0.2L3.9,5.2L1.3,0.6
								c0-0.1-0.1-0.1-0.1-0.1c0,0-0.1-0.1-0.2-0.1c-0.1,0-0.1,0-0.2,0c-0.1,0-0.1,0-0.2,0c-0.1,0-0.2,0.1-0.3,0.2
								C0.3,0.6,0.3,0.7,0.3,0.9l0,6l1.1,0l0-3.8l2,3.7c0.1,0.1,0.1,0.2,0.2,0.2c0.1,0,0.2,0.1,0.3,0.1c0.1,0,0.2,0,0.3-0.1
								c0.1,0,0.2-0.1,0.2-0.2l2-3.6l0,3.8l1.2,0l0-6c0-0.1,0-0.3-0.1-0.4C7.4,0.4,7.3,0.3,7.2,0.3"/>
						</g>
						<path id="Fill-20" class="st0" d="M44.2,1.6l0-1.2l-5.2,0c-0.1,0-0.2,0-0.2,0c-0.1,0-0.1,0.1-0.2,0.1
							c-0.1,0.1-0.1,0.1-0.1,0.2c0,0.1,0,0.1,0,0.2l0,4.2c0,0.3,0.1,0.6,0.2,0.8c0.1,0.2,0.2,0.4,0.4,0.5c0.2,0.1,0.3,0.2,0.5,0.3
							c0.2,0.1,0.4,0.1,0.5,0.1l4.1,0l0-1.2l-4.1,0c-0.2,0-0.3,0-0.3-0.1c-0.1-0.1-0.1-0.2-0.1-0.4l0-1l4.1,0l0-1.2l-4.1,0l0-1.5
							L44.2,1.6z"/>
						<path id="Fill-22" class="st0" d="M33.2,5L31,0.4l-1.3,0l3,6.2c0.1,0.1,0.1,0.2,0.2,0.2c0.1,0.1,0.2,0.1,0.3,0.1
							c0.1,0,0.2,0,0.3-0.1c0.1-0.1,0.2-0.1,0.2-0.2l3-6.2l-1.3,0L33.2,5z"/>
					</g>
					<polygon id="Fill-25" class="st0" points="110,39.5 111.2,39.5 111.2,33.1 110,33.1 					"/>
					<g id="Group-28" transform="translate(92.845070, 32.676230)">
						<path id="Fill-26" class="st0" d="M6.5,1.1C6.3,0.8,6,0.6,5.6,0.5C5.3,0.4,5,0.3,4.6,0.3L3,0.3C2.7,0.3,2.3,0.4,2,0.5
							C1.7,0.6,1.4,0.8,1.2,1C0.9,1.3,0.7,1.6,0.6,1.9C0.5,2.2,0.4,2.6,0.4,3l0,1.2c0,0.4,0.1,0.8,0.2,1.1c0.1,0.3,0.3,0.6,0.6,0.9
							C1.4,6.4,1.7,6.6,2,6.7C2.3,6.9,2.7,6.9,3,6.9l1.6,0c0.4,0,0.7-0.1,1.1-0.2C6,6.6,6.2,6.4,6.5,6.2C6.7,5.9,6.9,5.6,7,5.3
							C7.2,5,7.2,4.6,7.2,4.2l0-1.2c0-0.4-0.1-0.8-0.2-1.1C6.9,1.6,6.7,1.3,6.5,1.1L6.5,1.1z M6.1,4.2c0,0.2,0,0.4-0.1,0.6
							C5.9,5,5.8,5.2,5.7,5.3C5.5,5.5,5.4,5.6,5.2,5.6C5,5.7,4.8,5.8,4.6,5.8L3,5.8c-0.2,0-0.4,0-0.6-0.1C2.2,5.6,2.1,5.5,2,5.3
							C1.8,5.2,1.7,5,1.6,4.8C1.6,4.7,1.5,4.5,1.5,4.2l0-1.2c0-0.2,0-0.4,0.1-0.6C1.7,2.2,1.8,2,2,1.9c0.1-0.1,0.3-0.2,0.5-0.3
							C2.6,1.5,2.8,1.5,3,1.5l1.6,0c0.2,0,0.4,0,0.6,0.1c0.2,0.1,0.3,0.2,0.5,0.3C5.8,2,5.9,2.2,6,2.4C6.1,2.5,6.1,2.8,6.1,3
							L6.1,4.2z"/>
					</g>
					<g id="Bildmarke" transform="translate(0.000000, 0.032552)">
						<path id="Fill-29" class="st0" d="M1.9,19.9c0-9.7,7.7-17.6,17.3-17.6c2.6,0,5,0.6,7.2,1.6l1.1-1.6C19.2-1.8,9,0.8,3.5,8.7
							C-2,16.7-0.8,27.4,5.8,34l1.1-1.6C3.8,29.2,1.9,24.8,1.9,19.9"/>
						<path id="Fill-32" class="st0" d="M33.6,7.1l-1.1,1.7c2.5,3,3.9,6.9,3.9,11.2c0,9.7-7.7,17.6-17.3,17.6c-2,0-3.9-0.4-5.7-1
							l-1.1,1.7c8,3.2,17.4,0.5,22.6-7C40,23.7,39.3,13.7,33.6,7.1"/>
					</g>
				</g>
			</g>
		</g>
	</g>
</g>
</svg>
