<?xml version="1.0" encoding="UTF-8"?>
<svg version="1.1" xmlns="http://www.w3.org/2000/svg" width="128" height="40">
<path d="M0 0 C0.94101563 0.00322266 1.88203125 0.00644531 2.8515625 0.00976562 C3.83640625 0.01814453 4.82125 0.02652344 5.8359375 0.03515625 C6.82851562 0.03966797 7.82109375 0.04417969 8.84375 0.04882812 C11.2995391 0.0606348 13.75520854 0.07710225 16.2109375 0.09765625 C16.2109375 1.74765625 16.2109375 3.39765625 16.2109375 5.09765625 C6.8059375 5.59265625 6.8059375 5.59265625 -2.7890625 6.09765625 C-2.7890625 10.38765625 -2.7890625 14.67765625 -2.7890625 19.09765625 C4.1409375 19.59265625 4.1409375 19.59265625 11.2109375 20.09765625 C11.2109375 18.44765625 11.2109375 16.79765625 11.2109375 15.09765625 C7.2509375 15.09765625 3.2909375 15.09765625 -0.7890625 15.09765625 C-0.7890625 13.44765625 -0.7890625 11.79765625 -0.7890625 10.09765625 C1.85683764 10.07080946 4.50246846 10.05089268 7.1484375 10.03515625 C8.28055664 10.02258789 8.28055664 10.02258789 9.43554688 10.00976562 C11.36088063 10.00113184 13.28629331 10.04541292 15.2109375 10.09765625 C16.2109375 11.09765625 16.2109375 11.09765625 16.30859375 14.2578125 C16.29699219 15.54558594 16.28539062 16.83335938 16.2734375 18.16015625 C16.26441406 19.45050781 16.25539062 20.74085937 16.24609375 22.0703125 C16.23449219 23.06933594 16.22289062 24.06835938 16.2109375 25.09765625 C12.60719287 25.24266269 9.00419508 25.33162388 5.3984375 25.41015625 C4.37427734 25.45205078 3.35011719 25.49394531 2.29492188 25.53710938 C-5.19042254 25.65981994 -5.19042254 25.65981994 -7.96875 23.05078125 C-8.97434062 19.43065502 -9.1500891 16.2941011 -9.1015625 12.53515625 C-9.09769531 11.23449219 -9.09382813 9.93382812 -9.08984375 8.59375 C-8.81828199 5.43728543 -8.56784052 3.66839905 -6.7890625 1.09765625 C-4.33631109 -0.12871945 -2.7384844 -0.01649689 0 0 Z " fill="#FFFFFF" transform="translate(111.7890625,-0.09765625)"/>
<path d="M0 0 C0.91644287 0.00523682 1.83288574 0.01047363 2.77709961 0.01586914 C3.76645508 0.0190918 4.75581055 0.02231445 5.77514648 0.02563477 C6.81606445 0.03401367 7.85698242 0.04239258 8.92944336 0.05102539 C10.49662109 0.05779297 10.49662109 0.05779297 12.09545898 0.06469727 C14.68600996 0.07652627 17.27644895 0.0930085 19.86694336 0.11352539 C19.86694336 1.76352539 19.86694336 3.41352539 19.86694336 5.11352539 C14.25694336 5.11352539 8.64694336 5.11352539 2.86694336 5.11352539 C2.86694336 6.76352539 2.86694336 8.41352539 2.86694336 10.11352539 C7.81694336 10.11352539 12.76694336 10.11352539 17.86694336 10.11352539 C17.86694336 11.76352539 17.86694336 13.41352539 17.86694336 15.11352539 C12.91694336 15.11352539 7.96694336 15.11352539 2.86694336 15.11352539 C2.86694336 16.76352539 2.86694336 18.41352539 2.86694336 20.11352539 C8.47694336 20.11352539 14.08694336 20.11352539 19.86694336 20.11352539 C19.86694336 21.76352539 19.86694336 23.41352539 19.86694336 25.11352539 C16.59640819 25.22961265 13.32640156 25.3007325 10.05444336 25.36352539 C9.12567383 25.39704102 8.1969043 25.43055664 7.23999023 25.46508789 C5.90097656 25.48442383 5.90097656 25.48442383 4.53491211 25.50415039 C3.71273193 25.52509766 2.89055176 25.54604492 2.04345703 25.56762695 C-0.13305664 25.11352539 -0.13305664 25.11352539 -1.90429688 23.38476562 C-3.29914498 20.80652762 -3.49476434 19.29577687 -3.46118164 16.38305664 C-3.45602539 15.49811523 -3.45086914 14.61317383 -3.44555664 13.70141602 C-3.42493164 12.78553711 -3.40430664 11.8696582 -3.38305664 10.92602539 C-3.37790039 9.99854492 -3.37274414 9.07106445 -3.36743164 8.11547852 C-3.27448412 0.17427436 -3.27448412 0.17427436 0 0 Z " fill="#FFFFFF" transform="translate(80.133056640625,-0.113525390625)"/>
<path d="M0 0 C1.25393555 0.03383789 1.25393555 0.03383789 2.53320312 0.06835938 C4.58541149 0.1269939 6.63669202 0.21666785 8.6875 0.3125 C8.6875 1.9625 8.6875 3.6125 8.6875 5.3125 C0.2725 5.8075 0.2725 5.8075 -8.3125 6.3125 C-7.9825 7.3025 -7.6525 8.2925 -7.3125 9.3125 C-6.34828125 9.33828125 -5.3840625 9.3640625 -4.390625 9.390625 C-2.49570312 9.47570312 -2.49570312 9.47570312 -0.5625 9.5625 C1.31695312 9.63210938 1.31695312 9.63210938 3.234375 9.703125 C7.14432208 10.39311566 8.4041066 11.11121645 10.6875 14.3125 C11.39632303 17.22034881 11.02721789 19.255039 10.6875 22.3125 C9.46557617 24.0402832 9.46557617 24.0402832 7.6875 25.3125 C5.41918945 25.65307617 5.41918945 25.65307617 2.80078125 25.60546875 C1.86298828 25.59580078 0.92519531 25.58613281 -0.04101562 25.57617188 C-1.50571289 25.5384668 -1.50571289 25.5384668 -3 25.5 C-3.98806641 25.48646484 -4.97613281 25.47292969 -5.99414062 25.45898438 C-8.43414231 25.42362203 -10.87304719 25.37427033 -13.3125 25.3125 C-13.3125 23.6625 -13.3125 22.0125 -13.3125 20.3125 C-7.3725 19.9825 -1.4325 19.6525 4.6875 19.3125 C4.3575 18.3225 4.0275 17.3325 3.6875 16.3125 C2.22376953 16.25642578 2.22376953 16.25642578 0.73046875 16.19921875 C-0.54183594 16.13347656 -1.81414063 16.06773438 -3.125 16 C-4.38957031 15.94199219 -5.65414062 15.88398438 -6.95703125 15.82421875 C-10.3125 15.3125 -10.3125 15.3125 -12.19921875 13.98046875 C-14.12955248 11.08835471 -14.3125 8.74738352 -14.3125 5.3125 C-10.24099898 -0.4340381 -6.47896754 -0.33238586 0 0 Z " fill="#FFFFFF" transform="translate(63.3125,-0.3125)"/>
<path d="M0 0 C-0.33 0.66 -0.66 1.32 -1 2 C-1.79664062 1.96519531 -2.59328125 1.93039062 -3.4140625 1.89453125 C-11.6718775 1.57633355 -11.6718775 1.57633355 -19 5 C-22.64707022 8.74837773 -25 12.62364618 -25 17.984375 C-24.60155554 22.40046776 -23.45855405 25.2587221 -21 29 C-21 29.99 -21 30.98 -21 32 C-21.99 32 -22.98 32 -24 32 C-28.29120402 25.1608936 -29.273647 19.01417881 -28 11 C-25.98010731 5.91340891 -22.98614635 2.20987835 -18.25 -0.5625 C-12.27472672 -3.07900932 -5.66496813 -3.24826154 0 0 Z " fill="#FFFFFF" transform="translate(28,2)"/>
<path d="M0 0 C0.66 0 1.32 0 2 0 C5.4505387 6.65461034 7.51007786 11.95226783 5.3046875 19.32421875 C2.80197577 25.68615402 -0.34565809 28.86830055 -6.25 32.3125 C-10.80205594 33.45051399 -16.70439075 34.14780462 -21 32 C-20.505 30.515 -20.505 30.515 -20 29 C-19.34773438 29.03480469 -18.69546875 29.06960937 -18.0234375 29.10546875 C-10.77166559 29.33008115 -6.69021333 28.45108326 -1.1875 23.4375 C1.90548446 19.39359799 2.29000627 14.97472291 2 10 C1.26513461 6.87104486 0.26259638 3.95319154 -1 1 C-0.67 0.67 -0.34 0.34 0 0 Z " fill="#FFFFFF" transform="translate(33,7)"/>
<path d="M0 0 C0.9590625 0.2784375 0.9590625 0.2784375 1.9375 0.5625 C2.9584375 0.7790625 2.9584375 0.7790625 4 1 C4.33 0.67 4.66 0.34 5 0 C6.68608966 -0.07205511 8.37500659 -0.08386068 10.0625 -0.0625 C10.98160156 -0.05347656 11.90070313 -0.04445312 12.84765625 -0.03515625 C13.55792969 -0.02355469 14.26820312 -0.01195312 15 0 C15 2.31 15 4.62 15 7 C13.02 7 11.04 7 9 7 C8.34 5.68 7.68 4.36 7 3 C6.34 4.32 5.68 5.64 5 7 C4.01 7 3.02 7 2 7 C1.34 4.69 0.68 2.38 0 0 Z " fill="#FFFFFF" transform="translate(113,33)"/>
<path d="M0 0 C0.99 0 1.98 0 3 0 C3.33 0.66 3.66 1.32 4 2 C5.32 1.34 6.64 0.68 8 0 C8 2.31 8 4.62 8 7 C5.36 7 2.72 7 0 7 C0 4.69 0 2.38 0 0 Z " fill="#FFFFFF" transform="translate(83,33)"/>
<path d="M0 0 C2.31 0 4.62 0 7 0 C8.125 4.75 8.125 4.75 7 7 C5.00045254 7.04254356 2.99958364 7.04080783 1 7 C0 6 0 6 -0.0625 2.9375 C-0.041875 1.968125 -0.02125 0.99875 0 0 Z M2 2 C2 2.99 2 3.98 2 5 C2.99 5 3.98 5 5 5 C5 4.01 5 3.02 5 2 C4.01 2 3.02 2 2 2 Z " fill="#FFFFFF" transform="translate(93,33)"/>
<path d="M0 0 C3 0.125 3 0.125 4 1.125 C4.125 3.625 4.125 3.625 4 6.125 C3 7.125 3 7.125 0 7.25 C-3 7.125 -3 7.125 -4 6.125 C-4.125 3.625 -4.125 3.625 -4 1.125 C-3 0.125 -3 0.125 0 0 Z M-2 2.125 C-1.67 3.115 -1.34 4.105 -1 5.125 C-0.01 4.795 0.98 4.465 2 4.125 C2 3.465 2 2.805 2 2.125 C0.68 2.125 -0.64 2.125 -2 2.125 Z " fill="#FFFFFF" transform="translate(78,32.875)"/>
<path d="M0 0 C1.4540625 0.0309375 1.4540625 0.0309375 2.9375 0.0625 C2.9375 2.3725 2.9375 4.6825 2.9375 7.0625 C2.2775 7.0625 1.6175 7.0625 0.9375 7.0625 C0.9375 6.4025 0.9375 5.7425 0.9375 5.0625 C-0.0525 5.0625 -1.0425 5.0625 -2.0625 5.0625 C-2.0625 5.7225 -2.0625 6.3825 -2.0625 7.0625 C-2.7225 7.0625 -3.3825 7.0625 -4.0625 7.0625 C-4.10504356 5.06295254 -4.10330783 3.06208364 -4.0625 1.0625 C-3.0625 0.0625 -3.0625 0.0625 0 0 Z " fill="#FFFFFF" transform="translate(53.0625,32.9375)"/>
<path d="M0 0 C0.66 0 1.32 0 2 0 C2.185625 0.9590625 2.185625 0.9590625 2.375 1.9375 C2.684375 2.9584375 2.684375 2.9584375 3 4 C3.66 4.33 4.32 4.66 5 5 C5 3.35 5 1.7 5 0 C5.66 0 6.32 0 7 0 C7 2.31 7 4.62 7 7 C4.69 6.67 2.38 6.34 0 6 C0 4.02 0 2.04 0 0 Z " fill="#FFFFFF" transform="translate(58,33)"/>
<path d="M0 0 C2.31 0 4.62 0 7 0 C7 0.66 7 1.32 7 2 C6.34 2 5.68 2 5 2 C5 3.65 5 5.3 5 7 C4.34 7 3.68 7 3 7 C3 5.35 3 3.7 3 2 C2.01 2 1.02 2 0 2 C0 1.34 0 0.68 0 0 Z " fill="#FFFFFF" transform="translate(101,33)"/>
<path d="M0 0 C2.31 0 4.62 0 7 0 C7 0.66 7 1.32 7 2 C6.34 2 5.68 2 5 2 C5 3.65 5 5.3 5 7 C4.34 7 3.68 7 3 7 C3 5.35 3 3.7 3 2 C2.01 2 1.02 2 0 2 C0 1.34 0 0.68 0 0 Z " fill="#FFFFFF" transform="translate(66,33)"/>
<path d="M0 0 C0.66 0 1.32 0 2 0 C2 2.31 2 4.62 2 7 C1.34 7 0.68 7 0 7 C0 4.69 0 2.38 0 0 Z " fill="#FFFFFF" transform="translate(110,33)"/>
</svg>
